HIERARCHY
ROOT hips
{
  OFFSET 0 10.6860622 2.3727825e-15
  CHANNELS 6 Xposition Yposition Zposition Yrotation Xrotation Zrotation
  JOINT leftUpperLeg
  {
    OFFSET 0.6642549969 -0.9402397400000004 0
    CHANNELS 3 Yrotation Xrotation Zrotation
    JOINT leftLowerLeg
    {
      OFFSET 0 -3.997221335632195 0
      CHANNELS 3 Yrotation Xrotation Zrotation
      JOINT leftFoot
      {
        OFFSET -0.13777839790000004 -4.6145792000000005 -0.22186036399999998
        CHANNELS 3 Yrotation Xrotation Zrotation
        JOINT leftToes
        {
          OFFSET -0.03777410834999995 -0.9130806927000008 0.85230013
          CHANNELS 3 Yrotation Xrotation Zrotation
          End Site
          {
            OFFSET -0.03777410834999995 -0.9130806927000008 0.85230013
          }
        }
      }
    }
  }
  JOINT rightUpperLeg
  {
    OFFSET -0.6642778626 -0.9402397400000004 0
    CHANNELS 3 Yrotation Xrotation Zrotation
    JOINT rightLowerLeg
    {
      OFFSET 0 -3.997221452859387 0
      CHANNELS 3 Yrotation Xrotation Zrotation
      JOINT rightFoot
      {
        OFFSET 0.1377926176 -4.6145792000000005 -0.22185782299999995
        CHANNELS 3 Yrotation Xrotation Zrotation
        JOINT rightToes
        {
          OFFSET 0.037780746850000047 -0.9130806927000008 0.85230167
          CHANNELS 3 Yrotation Xrotation Zrotation
          End Site
          {
            OFFSET 0.037780746850000047 -0.9130806927000008 0.85230167
          }
        }
      }
    }
  }
  JOINT spine
  {
    OFFSET 0 0.13988381660000015 0
    CHANNELS 3 Yrotation Xrotation Zrotation
    JOINT chest
    {
      OFFSET 0 0.6191039003973773 0
      CHANNELS 3 Yrotation Xrotation Zrotation
      JOINT upperChest
      {
        OFFSET 0 0.9855186130586943 0
        CHANNELS 3 Yrotation Xrotation Zrotation
        JOINT leftShoulder
        {
          OFFSET 0.1807663869 1.5087829790000005 0
          CHANNELS 3 Yrotation Xrotation Zrotation
          JOINT leftUpperArm
          {
            OFFSET 0.5985063006419806 0 0
            CHANNELS 3 Yrotation Xrotation Zrotation
            JOINT leftLowerArm
            {
              OFFSET 2.2993332369501065 0 0
              CHANNELS 3 Yrotation Xrotation Zrotation
              JOINT leftHand
              {
                OFFSET 2.395047042602395 0 0
                CHANNELS 3 Yrotation Xrotation Zrotation
                JOINT leftIndexProximal
                {
                  OFFSET 0.5766295810000004 0.04556643899499946 0.17265095988184
                  CHANNELS 3 Yrotation Xrotation Zrotation
                  JOINT leftIndexIntermediate
                  {
                    OFFSET 0.2957229000000008 -0.019352197700001517 -0.007932640616999987
                    CHANNELS 3 Yrotation Xrotation Zrotation
                    JOINT leftIndexDistal
                    {
                      OFFSET 0.19008243099999922 -0.012484908149998475 -0.002786250786000012
                      CHANNELS 3 Yrotation Xrotation Zrotation
                      End Site
                      {
                        OFFSET 0.19008243099999922 -0.012484908149998475 -0.002786250786000012
                      }
                    }
                  }
                }
                JOINT leftMiddleProximal
                {
                  OFFSET 0.5834975091000001 0.0524350405149987 0.02204081888183999
                  CHANNELS 3 Yrotation Xrotation Zrotation
                  JOINT leftMiddleIntermediate
                  {
                    OFFSET 0.33880573540000003 -0.019871473270000717 -0.00000971183179999946
                    CHANNELS 3 Yrotation Xrotation Zrotation
                    JOINT leftMiddleDistal
                    {
                      OFFSET 0.20676022730000088 -0.012221336379999448 0.0001471936708000235
                      CHANNELS 3 Yrotation Xrotation Zrotation
                      End Site
                      {
                        OFFSET 0.20676022730000088 -0.012221336379999448 0.0001471936708000235
                      }
                    }
                  }
                }
                JOINT leftLittleProximal
                {
                  OFFSET 0.5344154683999995 -0.012880921405001189 -0.24414037221816004
                  CHANNELS 3 Yrotation Xrotation Zrotation
                  JOINT leftLittleIntermediate
                  {
                    OFFSET 0.21758961730000093 -0.011650919939999227 0.011893592810000034
                    CHANNELS 3 Yrotation Xrotation Zrotation
                    JOINT leftLittleDistal
                    {
                      OFFSET 0.1475273964999999 -0.008152365682999818 0.006001092492999946
                      CHANNELS 3 Yrotation Xrotation Zrotation
                      End Site
                      {
                        OFFSET 0.1475273964999999 -0.008152365682999818 0.006001092492999946
                      }
                    }
                  }
                }
                JOINT leftRingProximal
                {
                  OFFSET 0.5799399463000003 0.026911854694997794 -0.12150566991816003
                  CHANNELS 3 Yrotation Xrotation Zrotation
                  JOINT leftRingIntermediate
                  {
                    OFFSET 0.26167887460000006 -0.013480186499999602 0.010996293000000053
                    CHANNELS 3 Yrotation Xrotation Zrotation
                    JOINT leftRingDistal
                    {
                      OFFSET 0.17667108799999987 -0.008990287899999228 0.0055541023999999065
                      CHANNELS 3 Yrotation Xrotation Zrotation
                      End Site
                      {
                        OFFSET 0.17667108799999987 -0.008990287899999228 0.0055541023999999065
                      }
                    }
                  }
                }
                JOINT leftThumbProximal
                {
                  OFFSET 0.11018806699999972 -0.09448718900500053 0.17047963138184
                  CHANNELS 3 Yrotation Xrotation Zrotation
                  JOINT leftThumbIntermediate
                  {
                    OFFSET 0.31062601459999983 -0.08126270900000132 0.15443142000000007
                    CHANNELS 3 Yrotation Xrotation Zrotation
                    JOINT leftThumbDistal
                    {
                      OFFSET 0.21627175790000086 -0.08833193599999878 0.018771167799999988
                      CHANNELS 3 Yrotation Xrotation Zrotation
                      End Site
                      {
                        OFFSET 0.21627175790000086 -0.08833193599999878 0.018771167799999988
                      }
                    }
                  }
                }
              }
            }
          }
        }
        JOINT neck
        {
          OFFSET 0 1.5463305265074576 0
          CHANNELS 3 Yrotation Xrotation Zrotation
          JOINT head
          {
            OFFSET 0 0.8456443600000344 0
            CHANNELS 3 Yrotation Xrotation Zrotation
            JOINT leftEye
            {
              OFFSET 0.30408573140000006 0.5104519199999995 0.1276382305
              CHANNELS 3 Yrotation Xrotation Zrotation
              End Site
              {
                OFFSET 0.30408573140000006 0.5104519199999995 0.1276382305
              }
            }
            JOINT rightEye
            {
              OFFSET -0.30409491089999996 0.5104519199999995 0.1276379445
              CHANNELS 3 Yrotation Xrotation Zrotation
              End Site
              {
                OFFSET -0.30409491089999996 0.5104519199999995 0.1276379445
              }
            }
            JOINT jaw
            {
              OFFSET -3.155239131000001e-7 -0.11984121820000082 0.60178107
              CHANNELS 3 Yrotation Xrotation Zrotation
              End Site
              {
                OFFSET -3.155239131000001e-7 -0.11984121820000082 0.60178107
              }
            }
          }
        }
        JOINT rightShoulder
        {
          OFFSET -0.1807303465 1.5087829790000005 0
          CHANNELS 3 Yrotation Xrotation Zrotation
          JOINT rightUpperArm
          {
            OFFSET -0.5985063796536958 0 0
            CHANNELS 3 Yrotation Xrotation Zrotation
            JOINT rightLowerArm
            {
              OFFSET -2.2993322059002854 0 0
              CHANNELS 3 Yrotation Xrotation Zrotation
              JOINT rightHand
              {
                OFFSET -2.395045314457259 0 0
                CHANNELS 3 Yrotation Xrotation Zrotation
                JOINT rightIndexProximal
                {
                  OFFSET -0.5764487688300002 0.0441371204405987 0.17361932004999997
                  CHANNELS 3 Yrotation Xrotation Zrotation
                  JOINT rightIndexIntermediate
                  {
                    OFFSET -0.29573011380000047 -0.01934826376999843 -0.007698921482999974
                    CHANNELS 3 Yrotation Xrotation Zrotation
                    JOINT rightIndexDistal
                    {
                      OFFSET -0.19008373999999884 -0.012503266380000655 -0.0026365778999999897
                      CHANNELS 3 Yrotation Xrotation Zrotation
                      End Site
                      {
                        OFFSET -0.19008373999999884 -0.012503266380000655 -0.0026365778999999897
                      }
                    }
                  }
                }
                JOINT rightMiddleProximal
                {
                  OFFSET -0.5834852037300005 0.05211639405060153 0.02307162440000001
                  CHANNELS 3 Yrotation Xrotation Zrotation
                  JOINT rightMiddleIntermediate
                  {
                    OFFSET -0.33880114510000003 -0.019952774050000954 0.0002455003561999819
                    CHANNELS 3 Yrotation Xrotation Zrotation
                    JOINT rightMiddleDistal
                    {
                      OFFSET -0.20675694929999955 -0.012273788999999091 0.00030209124000002766
                      CHANNELS 3 Yrotation Xrotation Zrotation
                      End Site
                      {
                        OFFSET -0.20675694929999955 -0.012273788999999091 0.00030209124000002766
                      }
                    }
                  }
                }
                JOINT rightLittleProximal
                {
                  OFFSET -0.5346811737299992 -0.011214256288399227 -0.24363941305000003
                  CHANNELS 3 Yrotation Xrotation Zrotation
                  JOINT rightLittleIntermediate
                  {
                    OFFSET -0.21757715980000092 -0.011771559690000988 0.01201554387
                    CHANNELS 3 Yrotation Xrotation Zrotation
                    JOINT rightLittleDistal
                    {
                      OFFSET -0.1475201849000004 -0.00822055339600003 0.006082065407000015
                      CHANNELS 3 Yrotation Xrotation Zrotation
                      End Site
                      {
                        OFFSET -0.1475201849000004 -0.00822055339600003 0.006082065407000015
                      }
                    }
                  }
                }
                JOINT rightRingProximal
                {
                  OFFSET -0.5800810755299999 0.027657985680600072 -0.12066365025000003
                  CHANNELS 3 Yrotation Xrotation Zrotation
                  JOINT rightRingIntermediate
                  {
                    OFFSET -0.26166445029999974 -0.013623118409999302 0.011164098990000045
                    CHANNELS 3 Yrotation Xrotation Zrotation
                    JOINT rightRingDistal
                    {
                      OFFSET -0.17666387530000027 -0.009072900100000503 0.005668185599999959
                      CHANNELS 3 Yrotation Xrotation Zrotation
                      End Site
                      {
                        OFFSET -0.17666387530000027 -0.009072900100000503 0.005668185599999959
                      }
                    }
                  }
                }
                JOINT rightThumbProximal
                {
                  OFFSET -0.10997596379000074 -0.09577489355940072 0.16989765924999997
                  CHANNELS 3 Yrotation Xrotation Zrotation
                  JOINT rightThumbIntermediate
                  {
                    OFFSET -0.31036620999999986 -0.08229339117999834 0.15440884469999996
                    CHANNELS 3 Yrotation Xrotation Zrotation
                    JOINT rightThumbDistal
                    {
                      OFFSET -0.21631306399999906 -0.08825326400000111 0.018656797720000014
                      CHANNELS 3 Yrotation Xrotation Zrotation
                      End Site
                      {
                        OFFSET -0.21631306399999906 -0.08825326400000111 0.018656797720000014
                      }
                    }
                  }
                }
              }
            }
          }
        }
      }
    }
  }
}
MOTION
Frames: 4
Frame Time: 0.03333333333333333
0.0009625660604797304 -4.171216828753662 0.0995277389883995 -12.96653083343639 -24.708401090596894 5.8413304883286115 5.510670002149984 -59.07621911559607 10.47577168766577 128.23290615710803 84.88764069496615 128.53816848196328 0.6691878961894246 -7.915931504741302 -4.942422404513532 -2.741728208730131e-7 0.000007522668695258492 4.308179887120858e-7 -8.98191904570379 -64.24244747927278 -0.4204248310447043 -2.007902574593604 85.5219719273044 -1.9429570110703038 -0.09967932876214228 0.3872473534572155 -6.066833852542957 0.000004879704088274631 0.000005984677841490486 -0.000002357057473113459 -2.7897379058143787 6.824517759100817 -1.1863892595046912 -8.412099670565537 28.03580927292624 0.5473774436479866 0 0 0 1.7348973064066189 1.0357924932072475 -11.863016130614193 -34.66360482204263 -7.687850971469261 -56.84108119818639 -46.143606610218164 0.22732575381683479 0.53369841122841 23.09782491880609 39.201471347343436 39.34659740969884 1.2547954864869586 0.1290327078159462 -11.743112065421148 0.5654508316840161 0.02597934576985859 -5.262643449394782 0.2830167147280541 0.00649398704587036 -2.6313537009074164 1.2531194239142451 0.12868335342855547 -11.727095056132647 0.5671648675346178 0.026136381773576668 -5.27864750498256 0.28301738173059077 0.006499654552118118 -2.63136265607833 5.234046174903344 0.9385956686060485 -11.248032250234141 -3.4953088138376827 0.014287100037759728 -5.720183045835663 0.2830199430203308 0.006493996634148675 -2.631360523894791 1.2547954864869586 0.12903269447569912 -11.743112065421148 0.5654508316840161 0.02597934576985859 -5.262643449394782 0.2830167147280541 0.006493986628988695 -2.6313537009074164 -5.01269207169288 1.6137166095200328 -0.362196485290349 19.59684816686393 6.395952311299246 -5.953559110455468 7.444693545394266 0.5184705673324712 -1.5158715230296835 10.99001680664551 1.777685262505665 -0.834393379427134 -3.0984641003885725 -5.3705591481513695 15.078819322251837 0 0 0 0 0 0 0 0 0 5.0560644077791475 0.526572095560915 11.829130572865127 10.556512424954146 30.55775494002807 48.85004678291522 105.29388072963319 0.935290482350717 -0.7139246856089534 -9.802977276155602 22.741152108803156 -52.231455587132736 -3.507778363432127 1.0803387927869326 34.226654546809236 -1.3936840392134995 0.15782011133500953 12.920075924422964 -0.7012882063018928 0.03958373749365117 6.460510039253945 -3.507778363432127 1.0803388995276124 34.226654546809236 -1.3936840392134995 0.15782009799474572 12.920075924422964 -0.7012882063018928 0.03958373749365117 6.460510039253945 -3.507786247444055 1.0803340961970203 34.22666211636659 -1.3936801983539953 0.1578285690622795 12.92007426009951 -0.7012916211415418 0.03957748426721096 6.46051428101424 -3.507778363432127 1.0803387927869326 34.226654546809236 -1.3936840392134995 0.15782009799474572 12.920075924422964 -0.7012882063018928 0.03958373749365117 6.460510039253945 -10.533442293416499 21.30951458682877 11.99183533521543 -15.049072396145903 2.17022368819494 -1.1080332957029377 -3.0976888868760644 -2.4364289822359795 -2.0674725073538904
-0.009515977464616299 -4.185529096057129 0.11038216948509216 -13.030313624758014 -24.65309198989312 5.998869765960053 5.5622895344766246 -59.211875687018924 10.44604558100177 130.46548272727532 84.74849372691665 130.77883312650945 0.6896749585097594 -8.03050390328363 -5.0563987658620375 -2.741728208730131e-7 0.000007522668695258492 4.308179887120858e-7 -8.695992786425029 -64.50458328379774 -0.6063239092960893 -3.136670418623248 85.87725684962479 -3.0694658827248236 -0.1002719009630459 0.22741782869349852 -6.088991196348877 0.000004879704088274631 0.000005984677841490486 -0.000002357057473113459 -2.759855787914668 6.734470273346806 -1.1340418997058077 -8.12857145800871 27.709553004811156 0.7536691404413213 0 0 0 1.7307334866340416 1.037617519672138 -11.853872528541547 -34.76604452865409 -7.809218297740073 -57.07660729236043 -45.81033161437712 0.2242464885303122 0.5307202268035572 23.170827168625888 39.352422990430206 39.249883153417315 1.2547954864869586 0.1290327078159462 -11.743112065421148 0.5654508316840161 0.02597934576985859 -5.262643449394782 0.2830167147280541 0.00649398704587036 -2.6313537009074164 1.2531194239142451 0.12868335342855547 -11.727095056132647 0.5671648675346178 0.026136381773576668 -5.27864750498256 0.28301738173059077 0.006499654552118118 -2.63136265607833 5.234046174903344 0.9385956686060485 -11.248032250234141 -3.4953088138376827 0.014287100037759728 -5.720183045835663 0.2830199430203308 0.006493996634148675 -2.631360523894791 1.2547954864869586 0.12903269447569912 -11.743112065421148 0.5654508316840161 0.02597934576985859 -5.262643449394782 0.2830167147280541 0.006493986628988695 -2.6313537009074164 -5.01269207169288 1.6137166095200328 -0.362196485290349 19.59684816686393 6.395952311299246 -5.953559110455468 7.444693545394266 0.5184705673324712 -1.5158715230296835 11.004846953428919 0.9796555550049099 0.02426588729178248 -2.134951476013136 -6.646668735778705 15.267630480726325 0 0 0 0 0 0 0 0 0 5.17843753981373 0.5354355004341627 11.86978100722177 9.534948353765019 31.32557352551895 48.77512558245622 107.25103425725413 0.9595821696930122 -0.7068203836336224 -20.064327868194567 31.28356519905078 -52.971513905115 -3.507778363432127 1.0803387927869326 34.226654546809236 -1.3936840392134995 0.15782011133500953 12.920075924422964 -0.7012882063018928 0.03958373749365117 6.460510039253945 -3.507778363432127 1.0803388995276124 34.226654546809236 -1.3936840392134995 0.15782009799474572 12.920075924422964 -0.7012882063018928 0.03958373749365117 6.460510039253945 -3.507786247444055 1.0803340961970203 34.22666211636659 -1.3936801983539953 0.1578285690622795 12.92007426009951 -0.7012916211415418 0.03957748426721096 6.46051428101424 -3.507778363432127 1.0803387927869326 34.226654546809236 -1.3936840392134995 0.15782009799474572 12.920075924422964 -0.7012882063018928 0.03958373749365117 6.460510039253945 -10.533442293416499 21.30951458682877 11.99183533521543 -15.049072396145903 2.17022368819494 -1.1080332957029377 -3.0976888868760644 -2.4364289822359795 -2.0674725073538904
-0.018968118354678154 -4.191038949420166 0.1199842318892479 -13.052518666617585 -24.658724759210596 6.220096504127751 5.751086548518685 -59.166930205344315 10.195410959768477 131.34898505615567 84.67958139199615 131.66611590936398 0.7063000999814385 -8.127801743891022 -5.163852679268437 -2.741728208730131e-7 0.000007522668695258492 4.308179887120858e-7 -8.27971757751242 -64.62292109097292 -1.0290447078177896 -3.728744986924246 86.13365328804879 -3.6609651816706914 -0.09939221929282108 0.06532941286507017 -6.091963927679604 0.000004879704088274631 0.000005984677841490486 -0.000002357057473113459 -2.771370537909656 6.677264971734345 -1.2662246716051724 -7.915312441053626 27.5650545442051 0.8640521392081826 0 0 0 1.730215831222833 1.038251977592519 -11.846221924593362 -35.196708059256224 -7.873649742936619 -56.99166892345139 -45.492117170286654 0.2213020277510319 0.5278392953015107 23.36085768923525 39.284203883117506 39.13465089635471 1.2547954864869586 0.1290327078159462 -11.743112065421148 0.5654508316840161 0.02597934576985859 -5.262643449394782 0.2830167147280541 0.00649398704587036 -2.6313537009074164 1.2531194239142451 0.12868335342855547 -11.727095056132647 0.5671648675346178 0.026136381773576668 -5.27864750498256 0.28301738173059077 0.006499654552118118 -2.63136265607833 5.234046174903344 0.9385956686060485 -11.248032250234141 -3.4953088138376827 0.014287100037759728 -5.720183045835663 0.2830199430203308 0.006493996634148675 -2.631360523894791 1.2547954864869586 0.12903269447569912 -11.743112065421148 0.5654508316840161 0.02597934576985859 -5.262643449394782 0.2830167147280541 0.006493986628988695 -2.6313537009074164 -5.01269207169288 1.6137166095200328 -0.362196485290349 19.59684816686393 6.395952311299246 -5.953559110455468 7.444693545394266 0.5184705673324712 -1.5158715230296835 11.095205748328306 0.6908662564750109 0.40121025089101703 -1.2869323401082633 -7.089253065148013 15.236620079905162 0 0 0 0 0 0 0 0 0 5.308302060844911 0.5244649469302167 11.852468834229683 9.17505901542114 31.48921318089338 49.05242859182916 107.89583883885227 0.9675535940888766 -0.7043385374260147 -21.993180407443226 33.7928876379513 -52.20291309013466 -3.507778363432127 1.0803387927869326 34.226654546809236 -1.3936840392134995 0.15782011133500953 12.920075924422964 -0.7012882063018928 0.03958373749365117 6.460510039253945 -3.507778363432127 1.0803388995276124 34.226654546809236 -1.3936840392134995 0.15782009799474572 12.920075924422964 -0.7012882063018928 0.03958373749365117 6.460510039253945 -3.507786247444055 1.0803340961970203 34.22666211636659 -1.3936801983539953 0.1578285690622795 12.92007426009951 -0.7012916211415418 0.03957748426721096 6.46051428101424 -3.507778363432127 1.0803387927869326 34.226654546809236 -1.3936840392134995 0.15782009799474572 12.920075924422964 -0.7012882063018928 0.03958373749365117 6.460510039253945 -10.533442293416499 21.30951458682877 11.99183533521543 -15.049072396145903 2.17022368819494 -1.1080332957029377 -3.0976888868760644 -2.4364289822359795 -2.0674725073538904
-0.02680051699280739 -4.190199716021729 0.12559185922145844 -13.042084946791714 -24.782969706689247 6.395967147959176 5.8691921664693645 -58.94758425966622 9.983918914575815 131.32984037512853 84.67247789503048 131.64742448984026 0.7167037963795285 -8.189487969224556 -5.255408580460773 -2.741728208730131e-7 0.000007522668695258492 4.308179887120858e-7 -7.874449441673759 -64.53045237935142 -1.4580518228040142 -4.480797146544319 86.26671015089373 -4.41187506698698 -0.09721703256184382 -0.06681317906734688 -6.077395441764303 0.000004879704088274631 0.000005984677841490486 -0.000002357057473113459 -2.8243729026289177 6.644014879706889 -1.4541452731844604 -7.9504777695923865 27.51088588682583 0.8161245071849534 0 0 0 1.7294534417886689 1.0382342588803632 -11.84179158631529 -35.487285556004224 -7.787404130625829 -56.81507346282795 -45.29230005161735 0.21945500820679184 0.5260327668975759 23.508358143154627 39.23152898687141 39.013007861744484 1.2547954864869586 0.1290327078159462 -11.743112065421148 0.5654508316840161 0.02597934576985859 -5.262643449394782 0.2830167147280541 0.00649398704587036 -2.6313537009074164 1.2531194239142451 0.12868335342855547 -11.727095056132647 0.5671648675346178 0.026136381773576668 -5.27864750498256 0.28301738173059077 0.006499654552118118 -2.63136265607833 5.234046174903344 0.9385956686060485 -11.248032250234141 -3.4953088138376827 0.014287100037759728 -5.720183045835663 0.2830199430203308 0.006493996634148675 -2.631360523894791 1.2547954864869586 0.12903269447569912 -11.743112065421148 0.5654508316840161 0.02597934576985859 -5.262643449394782 0.2830167147280541 0.006493986628988695 -2.6313537009074164 -5.01269207169288 1.6137166095200328 -0.362196485290349 19.59684816686393 6.395952311299246 -5.953559110455468 7.444693545394266 0.5184705673324712 -1.5158715230296835 11.202679879470118 0.691821645372861 0.6127132563080766 -0.5767012153654019 -7.041133563389347 15.165700104555272 0 0 0 0 0 0 0 0 0 5.440967032157882 0.4996941696715265 11.795871181537084 9.399039039402426 31.461395584695282 49.47907099113309 107.48899675633274 0.9625131600392796 -0.7059173891619248 -20.56673495803267 33.02506801715303 -49.71047206600521 -3.507778363432127 1.0803387927869326 34.226654546809236 -1.3936840392134995 0.15782011133500953 12.920075924422964 -0.7012882063018928 0.03958373749365117 6.460510039253945 -3.507778363432127 1.0803388995276124 34.226654546809236 -1.3936840392134995 0.15782009799474572 12.920075924422964 -0.7012882063018928 0.03958373749365117 6.460510039253945 -3.507786247444055 1.0803340961970203 34.22666211636659 -1.3936801983539953 0.1578285690622795 12.92007426009951 -0.7012916211415418 0.03957748426721096 6.46051428101424 -3.507778363432127 1.0803387927869326 34.226654546809236 -1.3936840392134995 0.15782009799474572 12.920075924422964 -0.7012882063018928 0.03958373749365117 6.460510039253945 -10.533442293416499 21.30951458682877 11.99183533521543 -15.049072396145903 2.17022368819494 -1.1080332957029377 -3.0976888868760644 -2.4364289822359795 -2.0674725073538904
